<?xml version="1.0" standalone="no"?>
<!DOCTYPE svg PUBLIC "-//W3C//DTD SVG 20010904//EN"
 "http://www.w3.org/TR/2001/REC-SVG-20010904/DTD/svg10.dtd">
<svg version="1.0" xmlns="http://www.w3.org/2000/svg"
 width="64.000000pt" height="64.000000pt" viewBox="0 0 64.000000 64.000000"
 preserveAspectRatio="xMidYMid meet">

<g transform="translate(0.000000,64.000000) scale(0.100000,-0.100000)"
fill="#a9a9a9" stroke="none">
<path d="M205 493 c-4 -10 -27 -72 -52 -138 -101 -267 -104 -275 -84 -275 5 0
18 24 29 53 l20 52 102 0 102 0 20 -52 c18 -49 38 -70 38 -41 0 21 -152 418
-160 418 -4 0 -11 -8 -15 -17z m60 -155 c21 -57 40 -109 42 -115 4 -10 -17
-13 -87 -13 -70 0 -91 3 -87 13 2 6 21 58 42 115 21 56 41 102 45 102 4 0 24
-46 45 -102z"/>
<path d="M440 240 c-15 -15 -20 -33 -20 -70 0 -74 39 -107 92 -79 14 8 23 8
31 0 16 -16 37 -14 37 4 0 8 -6 15 -14 15 -14 0 -26 42 -26 91 0 30 -31 59
-62 59 -10 0 -27 -9 -38 -20z m68 -22 c15 -15 16 -63 2 -89 -22 -40 -70 -12
-70 41 0 50 39 77 68 48z"/>
</g>
</svg>
